<?xml version="1.0" encoding="UTF-8"?>
<svg xmlns="http://www.w3.org/2000/svg" xmlns:xlink="http://www.w3.org/1999/xlink" viewBox="0 0 800 400">
  <defs>
    <style>
      .cls-1 {
        fill: none;
      }

      .cls-2 {
        clip-path: url(#clippath);
      }

      .cls-3 {
        fill: #3f3f3f;
        mix-blend-mode: overlay;
      }

      .cls-4 {
        stroke: #3f3f3f;
        stroke-miterlimit: 10;
      }

      .cls-4, .cls-5 {
        fill: #1d1d1b;
      }

      .cls-6 {
        isolation: isolate;
      }

      .cls-5 {
        mix-blend-mode: hard-light;
        opacity: .5;
      }
    </style>
    <clipPath id="clippath">
      <rect class="cls-1" width="800" height="400"/>
    </clipPath>
  </defs>
  <g class="cls-6">
    <g id="Layer_2" data-name="Layer 2">
      <g id="Layer_1-2" data-name="Layer 1">
        <g class="cls-2">
          <g>
            <path class="cls-4" d="m196.49-4.5h10.12c1.68,1.46,3.06,3.05,3.78,5.28,4.1,12.78,12.87,21.36,24.46,27.23,6.78,3.44,13.35,7.28,20.12,10.73,6.94,3.53,12.4,8.78,17.43,14.55,4.76,5.47,4.27,14.58-.44,20.16-7.38,8.74-17.03,14.35-26.54,20.18-5.05,3.1-9.76,6.69-14.46,10.28-4.58,3.5-7.42,8.29-9.51,13.62-1.13,2.88-.91,5.64.28,8.44,2.3,5.43,5.57,10.16,10.12,13.85,15.5,12.58,30.91,25.29,46.95,37.15,16.62,12.29,35.83,17.95,55.91,20.73,8.74,1.21,15.64-2.39,20.47-10.23,12.45-20.22,19.52-42.31,21.8-65.83.91-9.43-3.32-17.64-11.18-23.36-4.24-3.08-8.53-6.14-13.05-8.77-7.71-4.48-13.93-10.65-20.13-16.93-4.58-4.64-6.6-10.15-6.81-16.53-.37-11.77.35-23.48,1.7-35.18.73-6.27.16-12.61.28-18.92.05-2.43.12-4.81,2.28-6.46h9.11c2.35,1.79,2.27,4.4,2.28,6.97.06,8.7.02,17.39.03,26.09,0,5.47.73,10.88,1.59,16.24,2.8,17.48,14.59,27.08,29.73,33.15,7.51,3.01,15.58,3.97,23.75,4.4,7.21.38,12.75-2.31,17.72-7.05,9.52-9.08,20.3-16.29,32.05-22.04,10.92-5.35,21.49-11.42,32.74-16.06,2.19-.9,4.41-1.69,6.72-2.23,3.16-.74,5.78.16,7.26,3.14,1.58,3.19.49,5.97-1.97,8.27-.87.81-1.95,1.36-3.01,1.86-15.34,7.15-29.66,16.15-44.05,24.99-7.53,4.63-15.69,7.86-23.53,11.8-8.58,4.32-15.12,10.54-18.57,19.91-9.83,26.7-18.2,53.87-25.04,81.48-3.72,15.03-1.14,29.71,5.51,43.7,3.36,7.09,6.41,14.42,5.54,22.54-1.03,9.58-4.69,17.33-13.74,22.3-7.72,4.24-15.05,5.52-23.06,1.64-.45-.22-.96-.32-1.44-.48-14.73-4.89-20.32-1.44-27.27,12.09-6.16,11.99-6.87,25.32-4.06,38.44,1.87,8.73,10.16,15.55,19.72,7.52,5.02-4.21,9.27-9.27,15.54-12.07,4.78-2.14,8.87-2.07,13.49.05,8.12,3.73,14.75,9.52,21.36,15.31,17.06,14.93,34.4,29.51,51.33,44.59,9.65,8.6,21.12,8.57,32.52,6.49,25.5-4.64,51.1-8.72,76.22-15.56,15.79-4.3,27.53,4.89,29.5,21.42.41,3.46,2.69,7.4-1.07,10.54h-25.3c-7.89-4.62-16.55-5.68-25.33-4.64-10.14,1.21-20.3,2.5-30.32,4.64h-69.82c-4.25-2.2-6.49-6.32-9.08-10.03-7.93-11.34-17.7-20.38-30.32-26.18-6.44-2.96-12.73-4.14-19.35-.64-14.09,7.43-29.35,10.71-44.95,12.72-2.16.28-4.26.99-6.37,1.56-7.91,2.13-12.79,7.07-14.41,15.29-.55,2.8-1.05,5.78-4.03,7.27h-57.68c-9.47-5.7-19.23-4.47-29.08-1.24-1.42.47-3,.39-4.31,1.24h-32.38c-1.63-2.71-.18-4.82,1.25-7.01,4.7-7.21,11.85-11.49,18.77-16,6.95-4.52,13.83-9.09,19.75-15,7.4-7.39,9.65-17.08,11.34-26.81,3.64-20.95,6.71-41.95,7.53-63.3.57-14.89,1.08-29.99,6.9-44.15,3.46-8.41,8.75-15.72,13.61-23.27,6.41-9.94,5.76-18.89-1.42-28.16-10.15-13.09-24.2-20.93-37.62-29.69-6.92-4.52-14.16-8.52-18.28-16.38-6.54-12.47-5.42-22.17,4.12-32.57,6.15-6.71,13.82-11.41,21.27-16.34,6.22-4.12,12.25-8.45,17.91-13.28,8.57-7.3,8.36-14.95-.31-22.2-6.65-5.56-14.79-8.79-21.52-14.28-10.87-8.86-18.15-19.97-21.65-33.63-.65-2.53-1.02-5.03.6-7.36Z"/>
            <path class="cls-4" d="m543.57-4.5h9.11c2.55,2.19,3.13,5.27,3.15,8.33.16,17.25,6.16,32.53,14.74,47.13,9.45,16.1,19.08,32.09,28.41,48.26,3.02,5.24,7.36,9.29,11.66,13.35,2.58,2.43,5.74,3.26,9.26,3.45,7.64.4,15.11-.71,22.57-2.1,9.45-1.77,19.05-1.97,28.58-2.9,17.98-1.75,35.08-6.57,51.17-14.72,13.6-6.89,21.27-19,26.26-33,5.55-15.57,11.67-30.83,19.96-45.16,3.23-5.59,5.82-11.53,7.88-17.68.74-2.21,1.9-3.96,4.03-4.95h14.17c2.33,4.05.1,7.61-1.39,11.11-3.87,9.1-9.09,17.47-14.2,25.89-7.35,12.12-12.51,25.26-17.37,38.53-8.97,24.46-25.75,40.05-50.71,47.01-12.81,3.57-25.55,7.46-37.91,12.56-8.89,3.67-15.45,9.14-18.69,18.67-2.36,6.93-4.15,14.04-6.74,20.88-4,10.56-11.25,18.88-18.41,27.27-7.95,9.31-13.61,19.81-15.88,32.04-1.35,7.28.45,14.3,1.87,21.22,3.39,16.55,8.26,32.64,16.03,47.76,3.59,6.98,8.15,12.83,14.59,17.24,16.54,11.33,34.78,17.44,54.63,19.55,16.01,1.7,31.12-1.37,46.05-6.54,10.25-3.55,20.69-6.18,31.62-5.87,7.23.21,14.4,1.32,21.57,2.21,2.18.27,3.62,1.68,5.06,3.13v11.26c-1.92,2.53-4.72,2.27-7.39,2.36-11.1.4-22.2-.43-33.32.85-11.4,1.31-22.55,3.98-33.89,5.6-16.64,2.37-33.19,1.99-49.84.26-14.89-1.55-29.71-4.01-44.69-4.54-9.51-.33-11.7,2.02-11.6,11.66.15,14.34-.37,28.6-2.97,42.74-.49,2.63-1.45,4.87-3.49,6.58h-13.15c-2.13-1.71-2.29-4-1.91-6.48,1.98-12.74-.61-24.54-6.05-36.17-5.49-11.74-21.12-18.41-33.21-15.88-10.7,2.24-20.52,6.58-30.39,10.97-23.25,10.33-47.24,11.88-71.66,5.56-12.78-3.3-23.29-11.28-33.98-18.75-8.16-5.7-14.84-12.71-20.54-20.89-7.63-10.93-7.34-22.66-3.85-34.69,1.85-6.37,4.52-12.48,5.93-19,3.02-13.91-1.31-26.69-6.2-39.27-5.4-13.9-9.56-27.83-9.1-43.13.44-14.65,4.58-28.16,9.62-41.57,7.31-19.43,21.62-32.59,38.46-43.31,12.56-8,25.45-15.44,39.98-19.32,13.99-3.74,28.15-4.68,42.58-3.29,7.18.69,14.39,1.71,21.66,1.41,10.51-.43,14.52-5.59,11.62-15.7-2.77-9.65-6.59-18.97-10-28.41-4.08-11.33-6.14-22.99-5.96-35.05.04-2.43.12-4.81,2.29-6.45Z"/>
            <path class="cls-4" d="m576.97,404.93c-.47-5.6-.99-11.16-2.9-16.52-3.93-11.04-12.55-16.59-23.76-13.43-25.2,7.12-51.02,10.94-76.63,15.87-15.63,3.01-29.27-.07-41.33-11.68-17.78-17.11-36.99-32.62-55.86-48.51-1.93-1.62-4.11-2.99-6.33-4.19-10.06-5.46-16.01-4.53-24.29,3.61-2.41,2.37-4.64,4.91-7.48,6.84-10.94,7.43-18.6,3.04-21.38-7.11-5.1-18.6-3.64-37.39,10.56-53.1,5.6-6.2,11.91-5.01,18.54-4.3,1.48.16,3.01.69,4.31,1.41,9.38,5.21,17.79,2.41,26.03-2.91,6.47-4.17,10.69-16.41,8.75-25.71-1.52-7.25-4.97-13.74-7.66-20.53-5.67-14.29-5.7-28.73-1.97-43.48,5.1-20.16,11.7-39.85,17.79-59.71,2.14-6.99,4.71-13.88,7.64-20.56,3.61-8.25,9.89-14.33,18-17.8,16.52-7.09,31.53-16.86,46.94-25.96,6.68-3.95,13.75-7.22,20.63-10.84,1.34-.7,2.75-1.4,3.83-2.42,1.45-1.38,1.93-3.25.9-5.14-1.05-1.91-2.72-2.42-4.75-1.66-2.84,1.06-5.79,1.9-8.51,3.22-19.72,9.58-40.02,18.13-57.28,32.2-.39.32-.89.55-1.19.94-9.28,12.1-21.7,12.61-35.16,10.09-17.43-3.26-31.9-10.97-40.43-27.37-4.17-8.01-4.42-17.09-4.7-25.9-.38-11.58-.09-23.19-.09-34.78h8.1c2.53,1.94,2.31,4.77,2.27,7.48-.16,10.57.11,21.1,2,31.55,1.77,9.76,5.82,18.29,13.77,24.23,10.91,8.14,22.64,6.2,34.06,1.21,7.43-3.25,13.89-8.36,20.6-12.91,14.12-9.58,29.57-17.04,43-27.72,6.52-5.19,12.44-10.94,17.49-17.56,1.88-2.47,3.83-4.69,6.47-6.28h43.51c.84.88,1.48,1.85,1.41,3.15-.89,16.21,2.79,31.79,6.18,47.44,2.25,10.4-1.88,17.45-11.88,21.1-6.08,2.22-12.52,2.68-18.87,3.19-17.76,1.44-34.31,6.45-49.71,15.64-7.39,4.41-14.83,8.76-22.33,13-18.86,10.65-31.24,26.54-37.81,47.26-3.86,12.17-8.17,24.19-9.8,36.97-1.42,11.17-.73,22.05,3.44,32.64,4.48,11.38,9.44,22.55,11.36,34.86,1.37,8.77-1.28,16.46-4.47,24.19-1.17,2.83-2.41,5.67-4.06,8.23-5.2,8.09-5.41,17.06-4.68,26.15.64,7.94,5.36,13.98,10.32,19.51,13.29,14.84,28.58,27.38,45.18,38.27,6.97,4.57,14.89,6.44,23.04,6.74,23.29.86,45.98-2.08,67.86-10.78,9.05-3.6,18.32-7.35,28.37-6.39,9.89.94,17.99,5.01,22.81,14.51,4.63,9.14,7.81,18.44,5.8,28.9-.37,1.92-.94,3.6-2.47,4.86h-13.15Z"/>
            <path class="cls-4" d="m74.05,404.93h-30.36c-1.58-2.04-.88-4.14-.25-6.3,3.07-10.58,8.38-20.03,14.35-29.13,6.42-9.79,13.19-19.42,16.85-30.7,2.4-7.42,4-14.98,2.41-23.05-1.46-7.46-5.14-13.23-10.7-17.95-5.49-4.66-17.29-4.47-24.77.63-12.16,8.28-21.66,19.28-30.11,31.27-2.93,4.16-5.73,8.42-9.65,11.74-2.01,1.71-4.09,3.19-6.71,1.05v-25.59c4.58-6.88,11.54-11.32,17.32-16.95,10.41-10.15,21.32-19.8,32.97-28.53,9.73-7.29,20.02-12.46,32.65-11.1,3.2.35,5.81,1.25,8.08,3.56,4.27,4.36,8.58,8.68,12.88,13.01.84.84,1.64,1.72,2.57,2.46,2.12,1.69,4.35,3.77,7.23,2.65,2.98-1.16,3.84-4.18,4.21-7.11,1.32-10.28-3.55-18.42-9.1-26.29-4.91-6.97-12.12-11.9-16.79-19.04-7.82-11.97-11.79-25.2-11.15-39.6.35-7.83,9.47-18.37,17.86-20.15,18.98-4.04,37.43-3.8,54.21,8.13,9.95,7.08,21.34,11.61,31.86,17.72,14.22,8.25,22.42,20.24,24.89,36.89,2.35,15.91,3.85,31.8,2.98,47.83-1.19,21.82-9.25,40.45-27.03,53.68-14.78,11-31.45,11.88-48.73,7.8-1.64-.39-3.28-.88-4.81-1.57-9.6-4.35-17.12-.71-23.36,6.54-12.74,14.79-21,31.98-25.79,50.93-.69,2.73-.74,5.89-4.01,7.18Z"/>
            <path class="cls-4" d="m152.98,404.93h-27.32c-1.54-1.49-1.77-3.29-.94-5.16,2.26-5.15,4.61-10.16,9.37-13.67,12.3-9.07,26.17-15.46,38.97-23.68,5.83-3.74,11.76-7.32,17.37-11.42,7.9-5.76,13.63-13.33,17.12-22.35,5.61-14.51,8.79-29.6,10.07-45.2,1.2-14.66.5-29.3.89-43.95.25-9.57,2.24-18.93,3.49-28.37,2.04-15.47-1.59-23.23-15.54-31.71-6.78-4.12-14.39-6.63-21.43-10.32-8.66-4.54-16.78-10.09-22.83-17.5-11.18-13.7-25.52-16.12-41.45-14.38-11.54,1.26-23.08,2.57-34.49,4.91-22.06,4.53-36.16,21.7-36.17,44.6,0,7.66.23,15.3.72,22.97.92,14.39-1.62,27.99-10.5,40.09-11.01,15.01-23.04,28.9-37.97,40.03-2.12,1.58-4.26,3.69-7.2,1.49v-10.24c1.26-3.49,3.88-5.75,6.6-8.11,13.73-11.94,25.24-25.6,30.87-43.41,2.22-7,2.36-14.22,2.15-21.64-.41-15.07-2.62-30.4,3.06-45.06,8.19-21.15,22.65-35.47,44.55-41.71,11.32-3.23,23.07-5.05,33.63-10.82,8.2-4.49,8.87-9.59,1.59-15.5-3.94-3.2-8.37-5.73-12.51-8.68-15.77-11.23-27.02-25.89-33.35-44.41-4.4-12.89-9.17-25.65-11.79-39.08-.48-2.45-1.46-5.06.96-7.15h8.1c2.24,1.87,2.85,4.52,3.49,7.19,3.12,12.99,8.06,25.33,13.82,37.28,4.99,10.37,13.12,18.17,22.85,23.93,16.05,9.49,32.95,16.13,52.14,15.35,12.03-.49,21.42-5.4,28.66-14.75,3.56-4.6,2.44-10.08,1.48-15.26-.58-3.17-1.74-6.24-3.02-9.21-5.38-12.45-8.47-25.47-9.73-38.98-.21-2.22-.07-4.04,1.62-5.55h9.11c1.96,1.45,2.2,3.7,2.68,5.86,2.69,12.06,6.31,23.78,14.16,33.53,4.67,5.8,10.16,10.88,15.01,16.55,5.21,6.09,5.21,14.14-.06,20.17-9.42,10.79-21.7,17.69-33.22,25.65-4.99,3.45-10.24,6.56-13.3,12.24-2.28,4.22-2.67,8.39-.74,12.73,2.28,5.13,4.82,10.12,7.54,15.03,4.8,8.66,12.94,13.16,21.06,17.7,4.57,2.55,9.28,4.86,13.99,7.13,9.17,4.41,16.71,10.96,23.02,18.79,6.37,7.91,5.42,17.16,3.14,26.33-.66,2.63-1.59,5.2-2.7,7.7-6.2,14.08-8.33,28.96-8.9,44.24-.88,23.81-2.06,47.64-8.35,70.79-4.45,16.39-12.39,30.45-27.06,39.9-6.24,4.02-12.49,8.05-18.52,12.42-7.53,5.46-15.3,10.66-19.89,19.22-.96,1.78-2.83,2.34-4.3,3.44Z"/>
            <path class="cls-4" d="m74.05,404.93c2.49-13.13,6.59-25.7,12.97-37.43,5.11-9.4,10.48-18.69,18.62-25.84,6.48-5.69,13.5-7.21,21.95-3.94,14.18,5.48,28.77,6.17,42.75-.53,18.06-8.66,29.07-23.35,33.01-43.17,4.85-24.38,2.29-48.49-3.75-72.29-3.35-13.19-13.79-20.28-24.75-26.16-11.76-6.3-23.4-12.76-34.87-19.61-9.52-5.68-20.3-6.7-31.23-5.76-2.01.17-4.03.36-6.04.35-12.72-.04-23.54,11.27-24.4,18.58-.53,4.47-.04,8.84.81,13.2,2.49,12.76,6.8,24.56,16.6,33.68,7.49,6.97,13.88,14.82,17.75,24.52,2.77,6.93,3.37,13.85-.06,20.72-2.01,4.02-4.87,5.24-9.1,2.92-5.64-3.1-9.1-8.55-13.88-12.55-3.67-3.07-5.77-8.33-11.26-8.88-8.22-.83-16.16.27-23.35,4.73-11.96,7.41-22.62,16.5-32.97,26.01-7.34,6.75-14.67,13.51-22.08,20.18-1.61,1.45-3.4,2.82-5.64,3.27v-14.33c2.94-6.87,9.87-9.51,14.85-14.2,14.27-13.47,29.3-26.18,40.53-42.58,7.25-10.59,9.38-22.3,7.55-35.06-1.48-10.27-2.39-20.61-.58-31.03,2.24-12.9,10.89-20.34,21.41-25.99,5.84-3.13,12.57-3.83,19.1-4.5,11.89-1.23,23.75-2.29,35.74-.37,10.61,1.71,18.33,8.23,26.13,14.7,8.66,7.18,18.17,12.88,28.33,17.58,8.06,3.73,15.02,9.05,20.9,15.8,2.81,3.23,3.73,7.27,4.42,11.26.67,3.84,1.43,7.75,1.38,11.65-.23,18.92,1.76,37.79,1.15,56.71-.53,16.2-3.69,31.79-10.37,46.55-6.4,14.15-17.9,23.12-30.9,30.53-12.02,6.85-24.83,11.38-38.42,13.67-2.66.45-5.24,1.31-7.88,1.84-13.85,2.8-21.47,11.77-24.77,25.19-.91,3.72-.82,7.93-4.33,10.6h-25.3Z"/>
            <path class="cls-4" d="m804.65,328.16c-7.5-.95-14.99-2-22.5-2.81-10.59-1.14-20.87.92-30.79,4.32-12.33,4.23-24.75,7.99-37.81,8.53-13.21.54-26.16-1.75-38.79-5.6-12.88-3.93-24.69-10.08-35.16-18.61-8.19-6.67-11.89-16.45-15.82-25.81-6.81-16.22-11.3-33.21-13.15-50.74-1.42-13.49,4.72-24.9,11.97-35.53,4.18-6.14,9.36-11.57,14-17.4,5.47-6.88,8.84-14.8,11.28-23.24,1.65-5.71,3.7-11.32,5.83-16.87,3.17-8.28,10.02-12.49,17.64-15.77,12.13-5.2,24.69-9.21,37.4-12.47,27.19-6.97,43.81-24.6,52.53-50.92,5.11-15.43,12.63-29.69,21.24-43.4,5.17-8.23,9.21-17.01,12.01-26.36,3.32,0,8.24-1.31,9.55.33,1.7,2.12.53,6.6.57,10.06.03,3.02,0,6.04,0,9.06-1.49,4.56-3.78,8.58-6.85,12.32-11.62,14.17-19.87,30.26-26.44,47.39-5.3,13.84-11.51,27.24-22.09,38.06-6.65,6.81-14.24,11.8-23.27,14.77-9.44,3.1-19.1,5.48-28.4,9.1-12.58,4.89-22.34,12.54-28.65,25-8.9,17.59-18.94,34.53-31.8,49.59-2.74,3.2-4.86,6.96-6.6,10.86-3.58,8.05-5.44,16.16-4.06,25.26,3.02,19.99,10.72,37.71,24.43,52.28,13.21,14.04,29.97,21.37,48.94,24.32,16.2,2.53,30.17-2.57,42.52-12.02,8.31-6.35,11.13-16.44,11.32-26.88.14-7.17.27-14.26,2.14-21.27,4.31-16.21,17.65-26.81,34.25-26.94,2.53-.02,5.06.1,7.58.02,2.94-.1,5.24.93,6.97,3.31v48.11c-5.06,6.48-4.54,12.97,0,19.45v20.47Z"/>
            <path class="cls-4" d="m804.65,203.28v21.5c-3.02,2.64-6.45,1.2-9.66.78-4.89-.63-9.72-.68-14.59-.05-13.32,1.71-20.59,11.55-27.42,21.5-7.48,10.89-11.87,23.27-14.72,36.19-.84,3.83-2.05,7.55-3.13,11.32-5.44,19.02-25.93,25.1-39.94,21.8-13.05-3.08-25.1-8.07-35.02-17.28-15.4-14.29-25.84-31.54-27.54-52.98-.98-12.36,3.87-23.32,11.12-33.18,9.05-12.31,17.62-24.94,25.23-38.23,10.85-18.94,27.04-30.45,48.18-34.84,4.13-.86,8.19-1.95,12.34-2.7,17.96-3.24,28.16-15.64,35.32-31.25,5.32-11.6,8.38-24.11,13.29-35.89,4.73-11.37,10.55-22.11,18.8-31.29,1.98-2.21,3.61-5.77,7.75-4.28v19.45c-7.49,14.91-13.86,30.16-16.55,46.89-1.62,10.08-1.64,19.6,3.43,28.75,1.78,3.21,3.85,6.13,6.97,7.91,2.79,1.59,4.72,3.75,6.14,6.53v21.5c-8.27,9.6-28.97,16.38-42.18,10.11-8.82-4.19-17.62-8.42-27.11-11.13-15.5-4.42-28.87.4-41.64,8.64-6.86,4.43-11.25,11.19-15.78,17.73-6.38,9.21-12.69,18.48-18.35,28.16-12.68,21.72-11.95,36.43,4.46,58.24,6.45,8.57,15.72,13.31,25.63,16.53,9.43,3.06,18.91-1.06,23.39-10.01,4.41-8.82,9-17.55,13.66-26.23,7.71-14.37,15.43-28.77,25.21-41.85,5.09-6.81,11.45-12.49,17.67-18.23,4.04-3.73,9.32-2.79,14.06-2.36,7.68.7,15.44,1.79,20.98,8.28Z"/>
            <path class="cls-4" d="m590.12,404.93c-.61-5.24,1.3-10.28.43-15.72-1.18-7.31-4.06-13.7-7.53-19.91-4.31-7.71-17.19-12.05-27.44-9.9-12.44,2.61-23.85,8.42-36.12,11.54-19.93,5.06-40.11,7.02-60.53,4.18-11.64-1.62-20.66-8.79-29.54-15.86-9.79-7.79-19.52-15.64-28.04-24.92-2.75-3-5.5-5.99-7.88-9.3-9.02-12.51-9.13-25.88-3.27-39.59,2.74-6.4,6.31-12.43,8.54-19.08,3.98-11.85.04-22.81-3.66-33.77-1.41-4.19-3.13-8.28-4.93-12.32-6.37-14.24-6.97-29-3.78-44.01,3.3-15.52,7.91-30.63,14.67-45.03,5.96-12.7,15.08-22.54,26.53-30.14,12.96-8.59,26.42-16.37,40.34-23.3,14.63-7.29,30.53-9.16,46.49-10.68,4.54-.43,9.01-1.21,13.2-3.17,6.84-3.2,9.91-9.11,8.28-16.59-3.12-14.29-6.64-28.5-6.49-43.3.03-2.92.2-5.78,1.04-8.58h13.15c-1.83,22.57,6.56,42.8,14.06,63.25.88,2.39,1.71,4.82,2.31,7.29,2.63,10.85-2.2,17.51-13.39,17.37-10.91-.14-21.8-1.44-32.71-1.88-22.97-.93-43.68,6.29-63.3,17.89-14.1,8.34-27.51,17.61-36.85,31.29-10.82,15.85-16.13,33.96-17.85,53.11-1.46,16.28,3.07,31.3,9.03,46.16,5.15,12.85,9.33,26.09,6.05,40.27-1.19,5.13-2.74,10.21-4.59,15.13-9.07,24.27-.96,36.48,14.49,50.69,9.9,9.11,21.33,16.57,33.89,21.99,7.89,3.41,16.09,5.17,24.46,5.82,21.3,1.64,41.52-2.52,60.68-12.26,9.7-4.93,19.99-8.43,31.03-8.02,11.31.42,20.46,5.27,26.3,15.39,7.32,12.69,9.85,26.31,7.38,40.85-.28,1.67-.2,3.4-.29,5.1h-14.17Z"/>
            <path class="cls-4" d="m330.06-4.5c1.14,19.28-2.24,38.39-2.08,57.64.06,7.75,2.49,13.92,7.91,19.66,7.71,8.15,16.83,14.19,26.17,19.89,13.94,8.51,19.41,20.28,16.58,36.55-3.66,21.03-10.15,40.88-21.16,59.22-5.74,9.56-14.07,13.09-24.4,11.56-24.45-3.64-46.75-12.31-65.84-28.86-11.36-9.85-23.43-18.85-35.25-28.16-2.81-2.22-5.41-4.65-7.6-7.46-10.32-13.27-7.04-22.79,6.32-34.41,9.22-8.02,20.37-13.25,30.2-20.42,3.86-2.82,7.08-6.33,10.2-9.89,3.8-4.34,2.85-12.06-1.12-16.91-7.22-8.82-17.14-13.61-26.75-18.84-6.08-3.31-12.33-6.27-18.06-10.25-10.31-7.16-16.08-17.14-18.57-29.31h8.1c2.05,1.2,4.04,2.41,5.03,4.79,4.51,10.95,13.42,17.52,23.5,22.09,17.03,7.73,34.09,15.41,51.2,22.97,7.17,3.17,12.6.94,16.39-6.08,5.95-11,8.44-22.87,8.87-35.28.1-3-.58-6.24,2.28-8.5h8.1Z"/>
            <path class="cls-4" d="m99.35,404.93c.75-9.53,3.72-18.33,8.66-26.43,4.35-7.14,11.87-9.27,19.08-11.43,7.09-2.12,14.48-3.21,21.63-5.14,15.54-4.18,29.54-11.65,41.7-22.19,13.27-11.51,18.13-27.59,21.16-44.22,3.13-17.18,2.71-34.53,1.22-51.9-.84-9.83-.2-19.7-.81-29.59-.78-12.63-7.44-20.4-17.22-26.38-5.6-3.42-11.5-6.35-17.35-9.34-8.18-4.17-15.68-9.43-22.39-15.62-8.5-7.85-18.37-12.02-29.65-12.48-14.34-.59-28.56.65-42.48,4.52-11.03,3.07-24.02,16.28-24.09,31.44-.04,7.86.14,15.72,1.48,23.4,2.87,16.48-1.52,30.93-11.82,43.36-13.54,16.34-28.97,30.82-45.45,44.12-2.49,2.01-5.26,3.68-7.9,5.51v-11.26c5.36-1.96,9.58-5.8,13.65-9.47,13.37-12.07,25.67-25.34,34.34-41.26,5.5-10.11,6.14-21.65,5.25-33.31-.95-12.5-2.37-25.17,2.14-37.42,5.64-15.32,16.04-25.53,31.88-29.21,17.75-4.11,35.76-6.4,54.04-5.93,7.93.2,15.03,2.77,20.43,8.63,12.98,14.09,28.17,24.68,46,31.47,6.94,2.64,12.47,7.4,17.25,13.02,5.45,6.41,5.68,14.33,4.42,21.86-3.15,18.89-4.05,37.84-3.83,56.95.21,18.12-2.53,35.85-7.4,53.38-5.29,19.03-17.42,31.63-33.72,41.4-14.47,8.67-29.53,16.37-43.37,26.12-6,4.23-8.85,10.46-10.54,17.39h-26.31Z"/>
            <path class="cls-4" d="m804.65,34.39c-11.38,9.72-18.52,22.41-24.08,36.03-4.75,11.64-8.79,23.58-13.1,35.41-4.17,11.44-11.9,20.26-21.2,27.42-7.83,6.03-17.96,6.4-27.26,8.61-15.74,3.73-29.97,9.76-40.34,23.28-4.58,5.96-8.41,12.3-12.28,18.68-6.44,10.6-13.48,20.8-20.93,30.68-12.68,16.82-13.37,34.94-4.96,53.46,7.99,17.6,19.94,31.98,37.8,40.23,7.82,3.61,16.01,6.43,24.74,6.63,11.03.24,25.57-5.89,29.71-20.8,2-7.22,3.89-14.46,6.04-21.64,4.3-14.36,11.17-27.06,21.4-38.27,9.48-10.39,20.84-12.24,33.53-11.18,3.67.3,7.29,1.22,10.93,1.86v15.35c-6.49-1.46-13.11-1.55-19.61-.76-14.25,1.74-22.11,11.28-26.57,24.11-2.37,6.8-2.67,14-2.42,21.21.2,5.69-1.08,11.12-3.25,16.39-6.67,16.13-20.65,22.23-35.87,24.75-21.5,3.57-40.99-3.25-58.2-16.32-19.75-15-29.84-35.76-34.29-59.93-3.06-16.61,2.87-30.14,12.94-42.37,11.06-13.44,20.5-28.05,27.78-43.74,8.57-18.45,23.46-27.3,41.53-32.69,5.49-1.64,10.95-3.41,16.47-4.93,17.51-4.84,28.7-17.05,37.13-32.46,7.61-13.9,11.83-29.36,19.39-43.29,6.92-12.74,15.6-24.21,24.97-35.17v19.45Z"/>
            <path class="cls-4" d="m152.98,404.93c4.34-11.02,13.18-17.75,22.32-24.33,9.59-6.9,20.2-12.33,28.78-20.68,8.85-8.61,13.52-19.56,16.41-31.19,4.86-19.52,7.16-39.37,7.59-59.59.43-19.7,1.85-39.47,10.66-57.78,2.43-5.04,3.52-10.69,3.24-16.41-.28-5.78-2.25-10.73-6.31-15.14-6.9-7.51-14.97-13.1-24.01-17.52-5.61-2.74-11-5.93-16.53-8.82-13.69-7.15-19.68-20.17-24.42-33.76-2.38-6.83,1.45-12.68,6.4-17.2,7.66-7,16.75-12.01,25.29-17.77,6.65-4.49,12.5-9.81,17.94-15.65,3.66-3.92,3.5-11.27-.13-15.31-6.1-6.8-12.88-13.13-18.05-20.6-7.73-11.16-12.2-23.84-12.76-37.68h7.08c1.93,9.41,5,18.39,10.44,26.35,6.48,9.49,15.47,16.03,25.35,21.4,4.66,2.53,8.72,5.77,12.32,9.64,4.15,4.46,4.71,10.73,1.36,15.92-4.74,7.35-12.1,11.73-18.95,16.59-8.25,5.86-17.22,10.73-24.39,18.06-12.26,12.53-10.38,30.18,4.1,40.2,10.28,7.11,21.33,13.06,31.24,20.74,6.56,5.09,12.63,10.68,17.6,17.44,5.92,8.05,6.37,18.87.82,27.27-8.43,12.77-17.19,25.4-18.88,41.29-.99,9.29-2.17,18.59-2.46,27.9-.72,23.21-4.46,45.97-8.7,68.72-2.57,13.82-10.65,23.17-21.51,30.75-5.95,4.16-12,8.18-18.05,12.2-5.65,3.75-9.8,8.75-12.55,14.97h-21.25Z"/>
            <path class="cls-4" d="m-4.88,342.49c6.84-1.88,9.94-7.84,13.56-13.05,7.99-11.49,17.31-21.64,28-30.6,7.18-6.03,15.51-7.77,24.16-6.22,8.47,1.52,13.49,8.31,16.51,15.84,5.78,14.4,1.78,28.05-4.7,41.2-6.32,12.82-15.63,23.82-21.9,36.69-2.93,6.01-4.54,12.45-7.06,18.57-15.18,0-30.36-.07-45.54.07-2.53.02-3.12-.58-3.1-3.14.12-19.79.07-39.58.07-59.37Z"/>
            <path class="cls-4" d="m804.65,203.28c-8.66-2.61-16.84-7-26.36-6.24-3.76.3-6.6,1.5-9.46,3.98-15.17,13.15-24.99,30.24-34.54,47.51-6.33,11.45-12.75,22.9-18.09,34.83-4.89,10.91-18.64,16.85-30.57,11.78-20.88-8.89-33.31-24.23-37.01-46.74-1.61-9.78,2.12-18.79,6.65-26.75,7.97-14,16.87-27.48,26.71-40.3,13.49-17.58,39.03-27.13,63.11-16.32,5.7,2.56,11.48,4.92,17.1,7.63,9.57,4.62,18.93,3.71,28.28-.57,4.75-2.18,9.12-5.18,14.18-6.67v37.87Z"/>
            <path class="cls-4" d="m780.36-4.5c-3.02,10.91-7.99,20.91-13.59,30.66-7.91,13.77-12.49,29.01-18.4,43.65-6.6,16.34-18.38,27.02-34.38,33.14-17.89,6.84-36.34,10.92-55.59,11.46-8.17.23-16.3,2.18-24.45,3.32-1.83.26-3.69.28-5.5.62-14.37,2.68-23.6-5.13-30.34-16.27-12.37-20.46-25.12-40.72-36.02-62.06-5.4-10.57-8.16-21.91-8.44-33.87-.08-3.55-.63-7.1-.97-10.65h10.12c2.16,1.65,2.18,4.03,2.29,6.45.9,20.62,8.21,38.46,22.84,52.99,7.33,7.27,14.18,15.03,22.25,21.55,6.65,5.37,13.68,9.89,21.93,12.31,15.56,4.57,31.15,8.64,47.62,7.8,16.38-.83,31.03-6.09,43.56-16.74,8.28-7.04,13.15-16.61,15.24-27.1,3.79-18.97,11.68-36.19,20.28-53.22,1.02-2.03,2.71-2.92,4.35-4.05h17.2Z"/>
            <path class="cls-4" d="m763.16-4.5c-9,19.42-18.09,38.62-22.97,59.87-5.83,25.41-25.08,37.35-48.91,42.29-13.32,2.76-26.82,1.81-40.1-1.28-5.58-1.3-11.11-2.84-16.68-4.22-11.27-2.8-20.9-8.79-29.19-16.66-9.69-9.2-19.78-18.13-27.71-29.02-11-15.12-15.55-32.3-14.79-50.98h8.1c2.03,1.78,3,4.09,3.15,6.74,1.26,22.2,11.88,39.03,29.35,51.76,19.3,14.06,40.81,23.2,64.08,27.74,11.72,2.29,23.73,2.1,34.34-4.34,11.8-7.17,20.23-16.97,19.58-32.16-.2-4.76.09-9.5-.5-14.28-1.43-11.4-9.39-18.51-16.24-26.4-2.24-2.58-5.54-4.74-4.23-9.05h62.74Z"/>
            <path class="cls-4" d="m60.89-4.5c5.23,24.04,11.32,47.8,24.94,68.67,5.43,8.31,13.13,14.54,21.07,20.36,4.63,3.4,9.88,5.94,13.98,10.06,6.87,6.91,5.78,12.63-2.61,17.32-10.67,5.97-22.4,8.59-34.03,11.14-26.79,5.86-49.18,34.59-47.68,62.1.49,9,.38,18.02.82,27.04.73,15.19-5.09,28.6-13.96,40.71-7.98,10.9-17.18,20.52-28.3,28.18v-10.24c1.25-3.03,3.2-5.45,5.65-7.65,6.86-6.15,12.34-13.48,17.11-21.37,8.22-13.58,8.47-28.54,6.79-43.6-3.04-27.3,3.11-51.39,22.76-71.18,6.57-6.61,13.15-13.17,20.48-18.98,10.06-7.97,11.77-14.16,7.47-26.44-8.78-25.09-15.32-50.83-22.08-76.51-.82-3.13-2.45-6.58.51-9.63h7.08Z"/>
            <path class="cls-4" d="m53.81-4.5c3.14,17.82,8.69,35.02,13.54,52.38,3.1,11.12,6.3,22.25,10.31,33.14,4.99,13.57,2.14,20.87-9.49,30.1-11.55,9.16-22.18,19.27-30.31,31.87-10.6,16.42-13.5,34.61-10.84,53.41,4.22,29.91-5.81,53.4-28.69,71.94-1.05.85-2.13,1.67-3.19,2.5v-12.28c1.48-3.87,3.98-7.08,6.57-10.22,11.7-14.16,14.91-30.27,12.02-48.33-1.82-11.36-3.54-22.78-2.06-34.53,1.83-14.58,8.46-26.75,16.52-38.45,7.59-11.01,16.73-20.84,22.97-32.93,5.71-11.06,6.15-22.42,4.93-34.29-2.01-19.58-7.56-38.39-11.92-57.46-.54-2.36-1.03-4.69.55-6.86h9.11Z"/>
            <path class="cls-4" d="m617.44,404.93c3.48-18.13,4.52-36.43,4.13-54.87-.1-4.77,4-8.3,8.88-8.6,10.16-.61,20.1,1.51,30.13,2.45,17.73,1.65,35.41,4.77,53.28,3.59,13.25-.88,26.34-3.3,39.39-5.9,16.99-3.39,34.24-1.92,51.39-2.17v12.28c-1.62,2.18-3.98,2.36-6.37,2.32-13.47-.25-26.91.33-40.35,1.11-11.09.64-22.04,2.59-33.05,4.02-15.18,1.97-30.43,3.26-45.62,5.07-19.62,2.34-31.62,13.61-37.69,32.13-1.04,3.17-1.5,6.74-4.89,8.57h-19.23Z"/>
            <path class="cls-4" d="m297.68,404.93c.31-1.32.67-2.64.93-3.97,3.07-16.05,7.01-19.33,22.72-22.21,15.95-2.93,31.74-5.8,46.3-13.34,5.47-2.83,10.95-2.61,16.56-.4,19.32,7.6,32.2,22.1,42,39.93h-128.51Z"/>
            <path class="cls-4" d="m44.7-4.5c5.91,24.24,13.13,48.17,14.37,73.42.72,14.58-4.89,26.58-12.72,37.86-8.21,11.82-18,22.5-24.74,35.37-6.63,12.65-9.55,26.01-7.64,40.38,1.32,9.93,3.06,19.89,3.22,29.86.3,18.9-8.15,33.99-22.08,46.18v-14.33c2.88-7.76,7.12-14.99,8.37-23.4,1.16-7.81-.11-15.28-2.38-22.62-2.41-7.76-4.64-15.55-5.99-23.58v-26.61c3.05-10.16,10.97-16.94,17.03-24.99,6.82-9.06,14.4-17.52,20.66-27.02,12.75-19.35,14.95-40.32,9.94-62.6-2.39-10.63-5.45-21.07-7.84-31.69-.49-2.16-1.26-4.33.68-6.21h9.11Z"/>
            <path class="cls-4" d="m700.42-4.5c3.72,5.94,8.72,10.84,13.42,15.88,6.82,7.31,9.69,15.76,9.83,25.47.07,4.77.06,9.55-.17,14.31-.8,16.39-21.32,32.48-36.46,33.59-25.21,1.85-47.22-7.32-68.71-18.51-11.07-5.77-21.11-13.19-29.8-22.52-10.22-10.97-14.83-24.08-16.62-38.59-.4-3.2-.68-6.42-1.02-9.62h8.1c2.77,2.33,2.79,5.76,3.17,8.88,2.5,20.58,13.96,34.58,31.61,43.84,17.26,9.06,35.24,16.37,54.61,19.17,9.94,1.44,19.72,1.24,27.82-6.83,5.92-5.9,7.18-12.83,6.6-20.53-.85-11.33-6.85-20.48-12.68-29.68-1.82-2.87-3.87-5.58-5.41-8.63-1-1.99-2.03-4.02-.49-6.23h16.19Z"/>
            <path class="cls-4" d="m684.23-4.5c3.53,7.79,8.75,14.54,13.05,21.86,5.72,9.72,9.51,19.88,7.44,31.52-2.2,12.34-12.45,20.93-25.2,21.38-18.04.65-34.46-5.52-50.67-12.28-12.28-5.12-24.19-10.68-33.79-20.8-8.37-8.81-13.03-18.84-14.93-30.53-.6-3.68-1.52-7.35-1.13-11.15h9.11c1.44,1.45,2.88,2.91,3.11,5.1,2.22,21.04,14.94,32.75,33.62,39.82,10.84,4.1,21.92,6.57,33.3,7.8,5.67.61,11.62.46,16.5-3.13,7.55-5.56,5.72-13.56,4.36-21.05-1.37-7.58-5.43-14.25-8.06-21.42-.89-2.41-2.03-4.79.15-7.12h13.15Z"/>
            <path class="cls-4" d="m636.67,404.93c2.71-12.16,7.08-23.19,16.63-31.97,5.64-5.19,11.74-8.39,18.93-9.92,13.84-2.95,28.02-3.14,41.99-5.13,11.14-1.59,22.32-2.89,33.5-4.15,16.9-1.91,33.87-2.25,50.86-2.05,2.02.02,4.04,0,6.06,0v12.28c-1.9,2.56-4.7,2.32-7.37,2.33-13.11.07-26.23-.25-39.33.1-19.28.51-38.04,4.02-56.15,10.9-11.2,4.26-19.13,12.37-25.65,22.11-1.45,2.16-2.94,4.08-5.07,5.51h-34.4Z"/>
            <path class="cls-4" d="m486.91-4.5c-5.72,12.02-15.11,20.9-25.72,28.05-19.58,13.2-39.49,25.95-59.76,38.02-15.31,9.11-32.11,6.01-43.75-7.05-6.44-7.23-8.19-16.49-9.46-25.89-1.48-11.03-.7-22.08-.96-33.12h11.13c2.52,1.94,2.18,4.76,2.29,7.47.32,7.97-.63,15.97.95,23.92,1.47,7.39,5.12,13.35,10.97,17.76,4.96,3.75,10.81,3.13,16.52,2.17,8.39-1.41,15.13-6.43,22.18-10.68,14.72-8.88,29.71-17.32,43.09-28.34,4.69-3.86,7.79-9.4,13.29-12.3h19.23Z"/>
            <path class="cls-4" d="m180.3-4.5c1.57,15.12,4.25,29.95,10.46,43.98,1.77,4,3.41,8.19,3.68,12.69.67,11.5-6.61,22.22-17.96,26.32-16.63,6-32.86,3.31-48.79-2.75-11.57-4.4-22.49-10.11-31.6-18.75-6.7-6.36-11.58-14.01-15.04-22.68-5.03-12.63-10.72-25.02-12.05-38.81h6.07c2.78,1.24,3.54,3.78,4.37,6.46,3.99,12.84,8.32,25.5,16.44,36.5,7.25,9.82,17.17,15.58,27.99,20.19,10.46,4.46,21.36,5.5,32.63,5.21,9.15-.24,19.04-9.64,18.71-19.56-.39-11.81-2.89-23.27-3.78-34.95-.35-4.6-2.07-9.39.79-13.84h8.1Z"/>
            <path class="cls-4" d="m35.6-4.5c3.64,14.17,7.54,28.26,10.43,42.65,5.19,25.8-1.86,48.15-17.53,68.29-10.51,13.5-21.22,26.84-31.86,40.24-.41.52-1.01.89-1.51,1.34v-41.97c2.27-3.45,6.07-4.81,9.36-6.77,18.87-11.27,27.53-28.89,28.44-50.06.56-12.91-3.31-25.61-8.31-37.67-1.24-2.99-2.44-5.99-3.71-8.96-1.01-2.36-1.81-4.89.53-7.09h14.17Z"/>
            <path class="cls-4" d="m804.65,378.32c0,8.02-.1,16.04.07,24.05.05,2.21-.42,2.68-2.6,2.63-7.59-.17-15.18-.07-22.77-.07-5.8-2.86-11.13-6.5-18.01-7.02-8.02-.61-14.01,3.58-20.44,7.02h-35.42c-2.95-3.4-1.07-6.46.94-9.2,8.78-12.01,20.1-19.75,35.08-21.72,19.74-2.59,39.25-.27,58.8,2.02,1.79.21,3.2.94,4.34,2.29Z"/>
            <path class="cls-4" d="m172.2-4.5c1.39,17.42,5.79,34.53,5.06,52.17-.34,8.29-8.49,17.29-17.65,18.18-23.93,2.34-45.14-4.39-62.17-21.81-11.07-11.32-15.69-26.36-20.31-41.18-.76-2.43-1.39-4.9-2.07-7.36h9.11c4.02,3.63,4.74,8.94,6.45,13.65,6.94,18.99,19.8,31.68,38.73,38.02,6.54,2.19,13.44,1.97,19.98.65,5.89-1.2,10.16-5.6,11.35-11.76,2.18-11.28,1.17-22.71.68-34.08-.11-2.53-.31-4.71,1.74-6.48h9.11Z"/>
            <path class="cls-4" d="m671.07-4.5c2.46,9.59,8.37,17.95,10.18,27.7,1.57,8.46,3.58,17.53-5.05,23.8-6.11,4.44-13.31,4.24-20.36,3.45-13.29-1.5-25.98-5.02-38.28-10.58-15.92-7.19-25.58-18.87-28.36-36.29-.43-2.68-.74-5.38-1.1-8.08h9.11c1.91,1.27,3.02,2.95,3.55,5.29,5.48,24.02,27.9,32.26,48,29.92,8.63-1,12.79-7.05,11.59-15.93-.64-4.72-1.13-9.46-1.84-14.16-.3-1.98-.17-3.73,1.43-5.12h11.13Z"/>
            <path class="cls-4" d="m804.65,378.32c-10.69-.91-21.36-2.05-32.07-2.67-16.84-.98-33.99-1.86-49.13,7.18-8.22,4.91-16.15,11.28-17.97,22.1h-34.4c6.08-15.03,16.9-25.14,31.84-30.64,18.64-6.87,37.96-10.2,57.8-10.29,14.64-.06,29.29-.01,43.93-.01v14.33Z"/>
            <path class="cls-4" d="m467.68-4.5c-4.63,9.82-13.29,15.64-21.6,21.61-14.42,10.36-29.93,18.98-45.19,28-6.6,3.9-13.83,4.77-21.41,4.71-8.5-.07-18.28-12.15-19.99-21.19-2.07-11-.65-22.09-1.1-33.12h12.14c2.15,1.65,2.2,4.03,2.29,6.46.17,4.59-.29,9.18.63,13.76,2.39,11.91,8.88,16.27,20.76,13.7,9.06-1.96,16.88-6.82,24.81-11.28,9.86-5.54,19.46-11.58,27.71-19.53,1.64-1.58,3.99-1.81,5.77-3.12h15.18Z"/>
            <path class="cls-4" d="m452.5-4.5c-7.81,9.94-18.28,16.48-28.9,22.72-6.54,3.84-13.34,7.24-20.08,10.73-6.35,3.28-13.21,3.89-20.18,3.31-4.25-.35-10.45-7.5-11.69-12.84-1.84-7.91-.85-15.94-1.11-23.91h27.32c7.02,4.82,14.48,4.43,22.12,1.94,2.37-.77,4.94-.8,7.22-1.94h25.3Z"/>
            <path class="cls-4" d="m321.97-4.5c.53,15.69-1.42,30.84-9,44.9-4.37,8.11-11.01,10.92-19.23,7.31-17.11-7.51-34.21-15.03-51.18-22.84-13.06-6.01-22.79-15.5-27.86-29.38h11.13c1.49,1.08,3.26,1.73,4.37,3.38,7.73,11.5,19.35,17.06,31.89,21.08,7.37,2.37,14.81,4.43,22.5,5.58,10.38,1.55,18.19-2.73,22.17-12.52,1.42-3.49,2.49-7.04,2.9-10.79.28-2.63,1.16-4.95,3.2-6.72h9.11Z"/>
            <path class="cls-4" d="m163.1-4.5c1.58,10.83.81,21.74,1.03,32.62.15,7.74-1.91,14.34-8.24,19.3-2.08,1.63-4.19,2.85-6.73,3.2-14.61,2.02-27.89-1.77-39.41-10.71-14.39-11.17-22.14-26.61-25.58-44.41h9.11c2.35,1.49,3.74,3.61,4.9,6.21,4.56,10.25,10.98,19.11,20.28,25.54,4.86,3.36,10.26,5,16.19,4.77,6.42-.24,11.1-3.76,13.23-9.94,2.32-6.7,1.72-13.79,2.76-20.67.34-2.23.39-4.41,2.34-5.93h10.12Z"/>
            <path class="cls-4" d="m21.43-4.5c.38,5.26,3.18,9.67,5.14,14.32,4.94,11.71,8.5,24,8.7,36.52.34,22.24-8.42,40.7-27.06,53.46-3.97,2.72-7.96,5.83-13.09,6.26v-19.45c1.22-2.27,2.61-4.43,5.19-5.28,14.78-4.85,22.88-30.2,19.38-43.15C15.98,24.44,9.53,12.37.44,1.63-1.04-.12-3.22-1.64-1.84-4.5h23.27Z"/>
            <path class="cls-4" d="m659.94-4.5c.97,6.39,2.02,12.76,2.88,19.17,1.4,10.38-3.92,17.63-14.07,18.55-13.49,1.22-26.14-1.12-37.16-9.88-7.27-5.79-11.04-13.55-13.24-22.33-.45-1.81-.77-3.66-1.14-5.5h14.17c4.12,2.03,5.72,6.48,8.91,9.46,8.32,7.79,17.09,5.75,20.23-5.14.58-2.02,1.9-3.08,3.24-4.32h16.19Z"/>
            <path class="cls-4" d="m-1.84-4.5C7.88,5.69,15.2,17.39,20.06,30.69c5.92,16.21,2.13,30.82-7.29,44.36-4.27,6.14-11.47,8.15-17.65,11.54v-22.52c2-3.74,3.16-7.84,4.84-11.72,1.54-3.56,1.68-7.31.15-10.92-1.71-4.04-2.89-8.29-4.99-12.17,0-10.43.19-20.87-.12-31.29-.09-3.17,1.54-2.41,3.15-2.49Z"/>
            <path class="cls-4" d="m152.98-4.5c.6,6.83-.55,13.61-1.25,20.32-1.88,18.07-14.87,22.6-29.64,16.07-12.97-5.73-20.55-17.12-26.38-29.7-.99-2.14-1.63-4.46-2.43-6.69h12.14c4.22,2.08,6.62,6.14,9.86,9.28,8.77,8.5,17.16,6.6,21.22-4.99.69-1.96,1.97-3.06,3.32-4.29h13.15Z"/>
            <path class="cls-4" d="m804.65,143.92c-16.15-8.89-21.8-20.13-19.29-39.04,2.21-16.64,5.86-32.83,15.59-46.95,1.06-1.54,1.98-3.18,3.7-4.09v90.07Z"/>
            <path class="cls-4" d="m312.86-4.5c-.39,7.01-1.59,13.87-4.56,20.26-3.79,8.19-10.46,13-19.2,12.31-18.14-1.42-35.34-6.36-50.56-17.05-5.7-4.01-9.73-9.3-12.71-15.52h11.13c6.97,5.23,13.45,11.22,21.93,14.04,7.02,2.34,14.07,4.67,21.59,4.05,8.6-.71,15.55-4.19,18.79-12.89.89-2.39,2.28-4.08,4.47-5.2h9.11Z"/>
            <path class="cls-4" d="m303.75-4.5c-2.45,8.72-6.46,16.07-15.72,19.12-7.53,2.48-14.94,1.41-22.37-.41-8.3-2.03-15.77-5.73-22.67-10.83-2.84-2.1-5-4.48-6.03-7.88h14.17c6.08,2.54,12.41,4.42,18.86,5.42,6.81,1.06,12.56-2.95,18.58-5.42h15.18Z"/>
            <path class="cls-4" d="m-4.88,174.62c5.68,13.64,11.77,27.27,11.02,42.5-.5,10.17-3.27,19.77-11.02,27.11v-69.6Z"/>
            <path class="cls-4" d="m139.82-4.5c-.41,1.98-.72,3.99-1.24,5.95-3.13,11.69-14.65,13.41-22.06,7.51-4.55-3.62-8.81-7.78-11.1-13.46h34.4Z"/>
            <path class="cls-4" d="m643.75-4.5c-1.19,4.64-1.01,9.68-5.36,13.22-4.48,3.65-12.3,4.51-16.63.69-4.38-3.86-8.93-7.76-10.4-13.91h32.38Z"/>
            <path class="cls-4" d="m496.01,404.93c14.11-6.21,28.96-8.1,44.1-6.77,4.34.38,9.35,1.67,11.55,6.77h-55.65Z"/>
            <path class="cls-4" d="m740.9,404.93c10.14-12.87,28.31-12.87,38.45,0h-38.45Z"/>
            <path class="cls-4" d="m288.57-4.5c-3.59,5.73-9.58,7.82-15.45,7.85-7.95.05-15.98-1.51-22-7.85h37.44Z"/>
            <path class="cls-4" d="m-4.88,29.28c10.86,9.43,11.26,24.88,0,34.8V29.28Z"/>
            <path class="cls-4" d="m206.61,404.93c9.3-5.14,18.56-10.47,29.34-3.61,1.57,1,3.13,1.91,4.06,3.61h-33.39Z"/>
            <path class="cls-4" d="m427.2-4.5c-4.98,3.68-10.47,5.71-16.69,6.22-5.63.46-9.78-1.36-12.66-6.22h29.35Z"/>
            <path class="cls-4" d="m804.65,307.69c-4.41-1.86-6.74-5.85-6.49-10.02.22-3.75,1.83-8.06,6.49-9.43v19.45Z"/>
            <path class="cls-4" d="m293.89,271.3c-1.94,23.72-3.85,47.44-3.39,71.29.08,4.2-.7,8.48-1.6,12.61-3.64,16.64-21.62,24.65-36.56,16.63-4.03-2.16-5.6-5.86-6.93-9.64-3.19-9.04-3.85-18.37-3.63-28.01.38-17.02,2.8-33.85,3.43-50.84.49-13.24,2.02-26.42,8.12-38.63,3.13-6.25,7.96-9.97,14.19-12.21,4.78-1.72,13.65,1.67,16.96,6.59,6.51,9.69,10.15,20.29,9.42,32.2Z"/>
            <path class="cls-4" d="m603.17,184.45c1.08,12.08-3,23.2-4.34,34.68-.85,7.31-.01,14.26,1.04,21.28,2.16,14.47,6.87,28.45,8.08,43.13.83,10.07.89,20.16-1.26,29.99-1.29,5.93-5.74,9.95-11.92,11.13-10.74,2.06-21.52,3.79-32.06,6.97-9.61,2.89-18.74,6.76-27.46,11.58-11.59,6.41-23.95,10.3-36.98,11.29-13.11,1-25.89-1.72-37.89-7.11-10.62-4.77-20.71-10.5-29.92-17.92-12.04-9.71-16.59-21.88-13.88-36.99.96-5.36,2.39-10.63,3.48-15.97,3.21-15.84-.6-30.79-5.98-45.47-5.36-14.61-10.39-29.29-9.1-45.2,2.05-25.24,9.58-47.82,29.83-64.68,18.3-15.25,38.27-26.51,62.06-29.94,12.41-1.79,24.47.47,36.53,3.01,27.91,5.89,45.67,23.33,55.58,49.77,3.05,8.15,6.66,16.02,11.23,23.43,3.32,5.37,3.4,11.31,2.97,17.01Z"/>
            <path class="cls-4" d="m196.47,270.7c.58,9.91-1.68,19.75-6.21,29.11-2.97,6.13-7.3,11.47-12.92,14.76-12.81,7.49-27.57,4.58-33.26-11.08-3.16-8.7-3.38-18.04-4.14-27.16-1.05-12.72-3.14-25.29-4.67-37.94-.66-5.46-.64-10.9-.35-16.32.26-4.98,5.9-11.97,16.12-11.58,18.4.7,33.79,8.7,40.36,28.08,3.46,10.22,5.46,20.72,5.08,32.13Z"/>
            <path class="cls-4" d="m328.63,181.93c-11.37-.2-21.68-4.18-31.75-8.39-17.26-7.22-32.53-17.83-46.12-30.76-5.47-5.21-9.54-11.92-11.15-19.15-1.52-6.86,2.59-12.84,7.71-17.35,10.35-9.12,22.99-14.01,35.56-18.93,3.45-1.35,7.03-2.39,10.46-3.78,12.26-5,23.15-.05,33.96,4.82,7.53,3.39,14.82,7.31,21.85,11.74,12.87,8.12,18.58,19.89,17.24,34.94-1.06,11.85-4.77,22.91-11.35,32.95-6.36,9.7-15.42,13.72-26.41,13.91Z"/>
            <path class="cls-4" d="m713.19,177.7c15.38,0,26.47,9.17,28.08,21.45.94,7.2-2.52,13.65-5.27,19.99-7.64,17.58-17.58,33.96-29.57,48.67-11.07,13.57-24.05,12.01-35.32-1.07-9.12-10.6-11.59-23.17-5.72-37.19,5.77-13.8,12.35-26.98,22.37-37.99,7.48-8.22,17.11-13.01,25.44-13.85Z"/>
            <path class="cls-4" d="m431.25,291.3c1.99-18.73-.08-36.97-6.15-54.8-2.58-7.57-4.92-15.24-6.96-22.97-5.78-21.87-2.47-43.03,6.56-63.19,7.64-17.07,21.44-28.64,37.22-37.73,13.31-7.66,27.32-13.04,43.1-12.78,27.87.46,48.53,12.5,60.79,38.07,5.96,12.42,10.69,25.39,14.92,38.53,3.44,10.68,4.17,21.86,4.06,32.8-.17,17.04,2.23,33.58,5.73,50.1,1.92,9.06,2.28,18.2.46,27.38-2.26,11.39-10.26,18.75-19.12,24.01-16.96,10.06-34.54,19.19-52.37,27.58-21.59,10.16-42.14,4.27-61.8-6.68-6.5-3.62-12.3-8.16-17.76-13.38-6.4-6.12-9.5-13.03-8.71-21.83.15-1.69.02-3.41.02-5.11Z"/>
            <path class="cls-4" d="m156.04,262.37c.23-4.23-.4-8.49.64-12.72,1.11-4.54,3.89-7.69,7.96-9.19,4.08-1.51,7.11.91,10.23,3.74,12.08,10.94,11.47,24.62,8.22,38.59-1.2,5.14-5.12,9.37-10.7,10.45-5.49,1.06-11.17-3.12-13.52-9.22-2.68-6.97-3.24-14.24-2.82-21.64Z"/>
            <path class="cls-4" d="m302.47,101.85c13.73.49,26.16,4.32,37.49,11.61,8.44,5.43,13.24,17.89,11.01,27.77-4.8,21.24-20.82,27.69-38.54,22.5-13.41-3.92-25.64-10.16-36.84-18.61-6.07-4.57-9.9-10.64-12.64-17.51-1.93-4.84,2.02-13.15,7.58-16.48,9.93-5.94,20.75-8.75,31.94-9.28Z"/>
            <path class="cls-4" d="m707.66,202.33c5.82-.15,10.89,5.13,9.61,10.67-2.58,11.17-7.34,21.37-17.99,27.09-6.95,3.73-12.63-.06-12.99-8.16-.42-9.62,9.68-25.3,18.59-28.8,1.08-.43,2.24-.65,2.78-.8Z"/>
            <path class="cls-4" d="m571.96,208.29c-.29,17.37,1.21,32.08,2.73,46.8.66,6.42.59,12.93-.14,19.39-1.1,9.64-7.42,15.98-14.15,21.65-12.68,10.68-25.95,20.59-40.48,28.66-19.94,11.07-44.25,4.38-59.87-9.6-10.77-9.64-14.89-21.09-15.8-34.94-.84-12.95-4.21-25.49-8.34-37.79-5.04-15.03-9.9-30.24-9.58-46.27.36-18.06,3.44-35.95,13.68-51.11,14.71-21.79,34.96-34.99,61.84-35.96,14.34-.52,27.32,2.99,38.33,12.73,8.57,7.58,14.48,17.08,18.64,27.58,7.79,19.68,14.69,39.65,13.13,58.87Z"/>
            <path class="cls-4" d="m306.4,120.36c7.82-.05,14.02,3.16,19.66,7.15,3.16,2.24,4.79,6.13,4.05,10.4-.88,5.03-4.52,7.35-8.89,8.74-8.16,2.61-25.87-5.71-29.47-13.64-1.81-3.98-.97-6.92,2.8-8.98,3.87-2.11,7.82-4.03,11.85-3.67Z"/>
            <path class="cls-4" d="m562.8,211.71c-1.15,14.41-1.53,32.09-4.83,49.54-1.17,6.18-3.96,11.35-7.96,15.68-10.23,11.07-21.52,21.04-32.7,31.13-9.31,8.4-34.02,7.89-43.5-2.43-8.01-8.71-14.21-17.83-17.74-29.2-4.59-14.77-10.37-29.17-14.94-43.95-9.16-29.65-6.19-58.53,9.03-85.28,10.08-17.72,26.21-27.9,46.82-29.94,23.57-2.33,39.98,8.88,50,28.59,11.59,22.8,15.82,40.48,15.82,65.87Z"/>
            <path class="cls-4" d="m552.82,204.88c-.97,13.6-2.27,27.36-7.44,40.32-4.45,11.16-13.28,18.61-22.46,25.67-9.2,7.08-18.99,12.16-31.09,11.32-4.43-.31-8.28-1.48-11.57-4.37-12.43-10.94-21.85-24.1-27.55-39.76-11.56-31.77-6.32-62.36,10.52-90.04,13.23-21.74,40.03-28.57,61.19-13.13,10.3,7.52,16.02,18.67,20.56,30.4,4.9,12.67,7.04,25.89,7.84,39.6Z"/>
            <path class="cls-4" d="m456.69,203.14c1.43-14.48,4.82-34.39,17.29-51.28,11.58-15.68,33.89-19.86,48.07-3.86,7.04,7.94,12.25,16.67,15.76,26.48,7.59,21.23,7.75,42.34-2.51,62.84-8.88,17.74-27.45,27.2-46.72,24.13-3.36-.53-6.56-1.77-9.2-3.99-14.99-12.56-23.27-28.4-22.69-54.32Z"/>
            <path class="cls-4" d="m468.7,210.57c.2-16.03,4.62-30.49,13.75-43.89,7.9-11.59,24.5-12.21,33.84-2.26,14.43,15.39,20.9,46.37,8.52,65.77-7.81,12.23-22.63,18.63-36.33,14.66-8.59-2.49-19.43-17.34-19.77-27.12-.08-2.38-.01-4.77-.01-7.15Z"/>
            <path class="cls-4" d="m482.86,208.74c-.72-7.32,1.76-14.29,7.84-20.14,7.08-6.82,12.79-6.93,19.8.16,9.74,9.85,9.79,26.49.09,36.1-3.87,3.84-13.74,5.87-18.8,3.21-5.72-3-9.22-7.81-8.94-14.76.05-1.19,0-2.38,0-4.57Z"/>
          </g>
          <rect class="cls-5" width="800" height="400"/>
          <rect class="cls-3" width="800" height="400"/>
        </g>
      </g>
    </g>
  </g>
</svg>